<?xml version="1.0" encoding="utf-8"?>
<!-- Generator: Adobe Illustrator 24.0.1, SVG Export Plug-In . SVG Version: 6.00 Build 0)  -->
<svg version="1.1" id="Layer_1" xmlns="http://www.w3.org/2000/svg" xmlns:xlink="http://www.w3.org/1999/xlink" x="0px" y="0px"
	 viewBox="0 0 200 200" style="enable-background:new 0 0 200 200;" xml:space="preserve">
<style type="text/css">
	.st0{enable-background:new    ;}
	.st1{fill:#0376F2;}
	.st2{fill:none;}
</style>
<title>DC Comics</title>
<g id="Layer_1-2">
	<circle cx="100" cy="100" r="90"/>
	<g class="st0">
		<path class="st1" d="M103.1,154.1c-2,0-4.1,0-6.1,0c-0.1,0-0.3-0.1-0.4-0.1c-2.5-0.1-4.9-0.5-7.3-1c-9.8-2-18.3-6.4-25.7-13.1
			c-5.6-5.1-10-11.2-13-18.2c-2.3-5.2-3.7-10.6-4.2-16.2c-0.1-0.9-0.2-1.7-0.2-2.6c0-1.9,0-3.7,0-5.6c0-0.1,0.1-0.3,0.1-0.4
			c0.1-2.2,0.4-4.4,0.8-6.6c2.5-12.8,8.7-23.4,18.7-31.8c9.3-7.7,20-11.8,32-12.4c4-0.2,8.1,0.1,12,0.8c12.5,2.4,22.9,8.3,31.2,17.9
			c8.1,9.3,12.4,20.3,13,32.6c0.2,3.9,0,7.7-0.7,11.5c-2.1,11.9-7.5,22-16.2,30.4c-5,4.7-10.6,8.3-17,10.9
			c-4.7,1.9-9.5,3.1-14.5,3.6C104.8,153.9,103.9,154,103.1,154.1z M103.4,101.6c0-0.4,0-0.7,0-1.1c0-6.6,0-13.1,0-19.7
			c0-0.4,0.1-0.7,0.5-1c3.3-2.5,6.6-4.9,9.9-7.4c0.3-0.2,0.6-0.4,1-0.4c3.7,0,7.5,0,11.2,0c0.4,0,0.7,0.1,1.1,0.4
			c1.4,1.1,2.9,2.1,4.3,3.2c0.4,0.3,0.5,0.3,0.7-0.2c0.4-1,0.9-1.9,1.3-2.9c0.2-0.4,0.4-0.5,0.8-0.5c2.2,0,4.5,0,6.7,0
			c0.1,0,0.3,0.1,0.4-0.1c0.1-0.2-0.1-0.3-0.2-0.4c-2.2-3.2-4.8-6.1-7.7-8.7c-3.9-3.5-8.2-6.3-13-8.4c-6.8-3-13.9-4.4-21.3-4.3
			c-2.5,0.1-5.1,0.3-7.6,0.7c-8.5,1.5-16,4.9-22.7,10.3c-3.7,3-6.9,6.4-9.7,10.3c-0.1,0.1-0.3,0.3-0.2,0.4c0.1,0.2,0.3,0.1,0.5,0.1
			c0.2,0,0.3,0,0.5,0c9.2,0,18.4,0,27.6,0c0.6,0,1.1,0.2,1.6,0.5c3.2,2.4,6.4,4.8,9.6,7.1c0.5,0.3,0.6,0.7,0.6,1.2
			c0,6.9,0,13.8,0,20.8c0,6.8,0,13.7,0,20.5c0,0.6-0.2,1-0.7,1.3c-3.2,2.3-6.4,4.6-9.7,7c-0.4,0.3-0.9,0.5-1.4,0.5
			c-8.7,0-17.4,0-26,0c-0.2,0-0.5-0.1-0.5,0.1c-0.1,0.2,0.2,0.3,0.3,0.5c2.2,2.8,4.7,5.3,7.5,7.5c8.9,7.1,19.1,10.8,30.5,11
			c2.9,0.1,5.8-0.1,8.7-0.6c12.6-2.1,22.9-8.1,31-17.9c0.1-0.2,0.4-0.3,0.3-0.5c-0.1-0.2-0.4-0.1-0.6-0.1c-7.9,0-15.8,0-23.6,0
			c-0.5,0-0.9-0.1-1.3-0.4c-3.2-2.3-6.4-4.7-9.6-7c-0.5-0.4-0.7-0.7-0.7-1.3C103.4,115.4,103.4,108.5,103.4,101.6z M143.3,124.9
			c0,0,0.1,0,0.1,0c4.3-7.6,6.5-15.9,6.6-24.7c0-7.9-1.7-15.4-5.3-22.5c-0.2,0.1-0.1,0.3-0.2,0.4c-0.8,5-1.6,10.1-2.3,15.1
			c-0.1,0.5-0.3,0.6-0.7,0.6c-3.9,0-7.7,0-11.6,0c-0.6,0-0.7,0-0.7-0.7c0-2.3,0-4.6,0-7c0-0.7,0-0.7-0.7-0.7c-4.4,0-8.9,0-13.3,0
			c-0.2,0-0.3,0-0.5,0.1c1.1,0.8,2.1,1.5,3.1,2.3c0.5,0.3,0.6,0.7,0.6,1.3c0,7.9,0,15.8,0,23.6c0,2.8,2.1,4.8,4.8,4.8
			c1.8,0,3.6,0,5.3,0c0.6,0,0.6,0,0.6-0.6c0-2.1,0-4.2,0-6.3c0-0.7,0-0.7,0.7-0.7c4.2,0,8.4,0,12.5,0c0.8,0,0.8,0,0.8,0.8
			c0,4.5,0,9.1,0,13.6C143.3,124.6,143.3,124.8,143.3,124.9z M69.4,85.7c1,0.7,2,1.5,3,2.1c0.6,0.4,0.8,0.9,0.8,1.6
			c0,9.2,0,18.4,0,27.5c0,0.7,0,0.7,0.7,0.7c1.6,0,3.3,0,4.9,0c0.4,0,0.7,0,1.1-0.1c2.5-0.4,4.2-2.4,4.2-4.9c0-7.3,0-14.6,0-21.9
			c0-3.1-2.1-5.2-5.2-5.2c-3,0-5.9,0-8.9,0C69.8,85.6,69.6,85.5,69.4,85.7z M58,127.2c0.1-0.2,0.1-0.4,0.1-0.6c0-8.8,0-17.7,0-26.5
			c0-4.2,0-8.3,0-12.5c0-0.5-0.2-0.8-0.6-1.1c-1.3-0.9-2.6-1.8-3.9-2.7c-0.7-0.5-0.7-0.5-1,0.3c-2.5,7.6-3.2,15.4-2,23.3
			c1,6.7,3.3,13,6.9,18.8C57.7,126.6,57.8,126.9,58,127.2z"/>
	</g>
	<rect class="st2" width="200" height="200"/>
</g>
</svg>
