<svg id="Layer_1" data-name="Layer 1" xmlns="http://www.w3.org/2000/svg" viewBox="0 0 200 200"><defs><style>.cls-1{fill:#fff;fill-rule:evenodd;}.cls-2{fill:none;}</style></defs><title>Disney</title><circle cx="100" cy="100" r="90"/><path class="cls-1" d="M100.37,80.6a3.69,3.69,0,0,1,2.21.89,3,3,0,0,1,.66,3.19c-1.55,3.18-5.23,5.31-7.74,6a8.79,8.79,0,0,1-4.78-.18c-.67.4-1.23,1.68-2,1.15-1.17-.92-.16-2.35-.84-3.37-.14-.21-.49-.23-.67-.57-.92-2,.23-4,1.51-5.53,2.14-2.39,8.28-5,11.69-1.6Zm-7.13,1.6A5.88,5.88,0,0,0,90,83.79c-.73.85-1.19,1.68-.75,2.57,1.55-1.15,2.3-2.75,4-3.72,0-.18.27-.31,0-.44Zm7.21.44c-3-.27-5.35,2-7.52,4.25-.13.35-.93.75-.31,1.15a10,10,0,0,0,7.83-2.52,2,2,0,0,0,.76-2.13,1.58,1.58,0,0,0-.76-.75Z"/><path class="cls-1" d="M126.93,95.83c1.41,3.45,2.61,8.9,0,12.22-.71.8-2,1.53-2.75.93-2.92-2.35-4.16-5.71-6-8.72-.27-.14-.27.22-.4.35-.67,3.06.57,7-1.51,9.43a1.6,1.6,0,0,1-1.81-1.06c-1-3.15,0-6.42.31-9.56.62-1.6.88-3.46,2.26-4.65,2.21.88,3.27,3.36,4.55,5.18a46,46,0,0,0,2.75,4.16c.93-.4.47-1.61.44-2.35a57.81,57.81,0,0,0-1.9-8.28c-.05-.7-.44-1.9.31-2.34,2,.88,2.83,3,3.72,4.69Z"/><path class="cls-1" d="M113.56,94.77a1.83,1.83,0,0,1-1,1.59c-4.25.67-9,.27-13,1.6-.13.48.45.57.76.7,3.41.53,7,.67,10.31,1.51,1.76.44,2.39,2.52,2.52,4.25a4.5,4.5,0,0,1-1.77,3.94,12,12,0,0,1-11.59.09,4.51,4.51,0,0,1-2.57-3.28,2.64,2.64,0,0,1,1.28-2.43,11.65,11.65,0,0,1,9.87,1.06c.18.88-.78.84-1.24,1.15-3.05,1.77-5.35-2-8.19-.62-.39.27-.68,1-.22,1.24,3.5,1.55,7.4.44,10.85-.53a1.4,1.4,0,0,0,.93-.93c-.13-1.42-1.73-1.73-2.75-2.13-3-.75-6.33-.75-9.56-1.06a2.3,2.3,0,0,1-1.59-1.06,3.58,3.58,0,0,1,.44-3.41c4.12-3.63,10.36-3.32,15.58-2.35.36.14.76.27.89.67Z"/><path class="cls-1" d="M94.21,96.45a107.38,107.38,0,0,1,.53,12.66c-.08.58-.75.71-1.19.93a2.22,2.22,0,0,1-1.9-.4c-1-1.64-.67-3.85-.76-5.84.14-3.14.09-6.55,1-9.47.17-.43.66-.8,1.06-.54a2.75,2.75,0,0,1,1.28,2.66Z"/><path class="cls-1" d="M143.39,95.83c.22.36.44.91,0,1.15-2,.89-4.69.49-7,.75a2.34,2.34,0,0,0-.89,2.22c.23.13.43.33.67.31,1.42.09,3.54-.67,4.47.66.23.4,0,1.87-.66,1.9-1.73.23-4.57-.21-5.4.23-1.07.7-1,2.08-1.38,3.18.76.49,1.54,0,2.44-.13,1.64-.27,3.45-.75,5.09-.4.31.58.75,1.2.44,1.91-2.79,2.21-6.39,4.48-10.22,2.87-1.44-.64-2.09-2.83-1.6-4.69.31-1.33,1.68-2.61.84-4a1,1,0,0,1,.76-1.28c1.46,0,1.15-1.82,1.9-2.66-.84-.93-3-.88-2.75-2.74,1-.53,2.26-.36,3.41-.53a26.86,26.86,0,0,1,8.19-.53c.53.1,1.24,1.15,1.68,1.81Z"/><path class="cls-1" d="M80.18,85.74c4.09,3.34,9.39,9,8.72,15.58-.8,5.18-6.28,9.07-10.93,10.31a31,31,0,0,1-14.79.14c-.31.84-.62,1.86-1.59,2.21a2.09,2.09,0,0,1-1.91-.31c-1.37-1.28-.26-3.76-2.25-4.56-3.9-1.64-8.1-4.87-10.1-8.85A2.4,2.4,0,0,1,47.87,98c3.05-2.43,6.9-3.4,10.75-4.16.22.09.14-.22.31-.31a31.44,31.44,0,0,1,1.15-7.74.7.7,0,0,1,1-.23c2.43,1.86,1.28,5.36,2.34,7.88,4.65.23,9.3.45,13,3.06a4,4,0,0,1,1.15,4.07,3.38,3.38,0,0,1-2.87,2c-.8,0-2.3.08-2.22-.53s2.71-1.6,1.91-2.43c-1.16-1.2-7-1.91-10.53-2.35-.44-.09-.85,0-.85.53-.09,3.37-.35,7.09.22,10.32a.82.82,0,0,0,.53.53c6.33,1,13,.44,18-3.19a7.59,7.59,0,0,0,2.65-7.35c-2-8-10.36-12.84-17.22-15.93a48.29,48.29,0,0,0-22-4c-1.26.09-3.26.53-3.27,1s2.26.31,2,1.15-2.59.35-3.28.14-.62-1.2-.44-1.82c1.73-3,6.54-3.3,8.72-3.41A49.13,49.13,0,0,1,80.18,85.74ZM58.49,97.6A27.71,27.71,0,0,0,49.37,99c-.57.22-1.28.84-.84,1.59a14.71,14.71,0,0,0,4.34,3.72,16.42,16.42,0,0,0,5.44,2.3,50,50,0,0,0,.4-8.67c-.18-.09,0-.27-.22-.36Z"/><path class="cls-1" d="M150,93.57c-.13,3.85-3.72,6.24-3.72,10.1.13.13.22.31.4.22,2.88-3.15,5.71-7.62,9.92-8.94a3,3,0,0,1,2.52,1.59,9.66,9.66,0,0,1-.93,9.69c-2.1,2.61-5.76,5.23-9.92,4.78a56.85,56.85,0,0,0-3.58,13.37c-.36.93-1.2.09-1.73-.09-3.58-2.83-.64-10.33-.4-11.28s1.21-3.21,1.91-5.09c-1.69-3-.62-6.64.75-9.43a18.76,18.76,0,0,1,4.25-5.14.61.61,0,0,1,.53.22Zm7.13,4.78c-.53-.08-.76.62-1.2.76-2,2.3-4.07,4.6-5.09,7.34,1.37.18,2.52-.7,3.72-1.19a6.47,6.47,0,0,0,3.19-5.84c-.09-.4-.45-.71-.62-1.07Z"/><rect class="cls-2" width="200" height="200"/></svg>