<svg xmlns="http://www.w3.org/2000/svg" viewBox="0 0 200 200"><defs><style>.cls-1{fill:none;}.cls-2{fill:#fe0002;}.cls-3{fill:#00b3ec;}.cls-4{fill:#fb0;}.cls-5{fill:#fff;}</style></defs><title>Friends</title><g id="Layer_2" data-name="Layer 2"><circle cx="100" cy="100" r="90"/><rect class="cls-1" width="200" height="200"/><path id="path3001" class="cls-2" d="M52,100a1.8,1.8,0,0,1-1.7,1.7,1.8,1.8,0,0,1-1.8-1.7,1.8,1.8,0,0,1,1.8-1.8A1.8,1.8,0,0,1,52,99.9"/><path id="path3007" class="cls-3" d="M73.6,100a1.7,1.7,0,1,1-3.4,0,1.7,1.7,0,0,1,1.7-1.8,1.8,1.8,0,0,1,1.7,1.7"/><path id="path3011" class="cls-4" d="M86.8,100a1.8,1.8,0,0,1-1.7,1.7,1.8,1.8,0,0,1-1.8-1.7,1.8,1.8,0,0,1,1.8-1.8,1.8,1.8,0,0,1,1.7,1.7"/><path id="path3017" class="cls-2" d="M106.7,100a1.8,1.8,0,0,1-1.8,1.7,1.8,1.8,0,0,1-1.7-1.7,1.8,1.8,0,0,1,1.7-1.8,1.8,1.8,0,0,1,1.8,1.8"/><path id="path3021" class="cls-5" d="M127.1,100a1.8,1.8,0,0,1-1.8,1.7,1.8,1.8,0,0,1-1.7-1.7,1.8,1.8,0,0,1,1.7-1.8,1.8,1.8,0,0,1,1.8,1.8"/><path id="path3029" class="cls-3" d="M150.9,100a1.7,1.7,0,0,1-1.7,1.7,1.8,1.8,0,0,1-1.8-1.7,1.8,1.8,0,0,1,1.8-1.8,1.7,1.7,0,0,1,1.7,1.8"/><path class="cls-5" d="M95.3,101.6l.7-.2h.8l.5-.2h.9a.6.6,0,0,1,.8.3c0,.1,0,.1.1.1s.2.6-.2.8h0a1.3,1.3,0,0,1-.7.6H98c-.1.2-.3.2-.5.3s-.1.2-.3.1l-.6.4-1.5.5c-.1.2-.3.1-.5.1h0c0,.2-.2.2-.3.1H93c-.2,0-.3.2-.5.1s-.4.1-.6.1a2.1,2.1,0,0,1-1.1.1h-1a.3.3,0,0,1-.3-.5v-.2a.8.8,0,0,1,0-.7h0a2.7,2.7,0,0,1,0-.9v-.3c0-.3.1-.5.1-.8a5,5,0,0,0,.4-1.3c.1-.2,0-.5,0-.7a3.1,3.1,0,0,1,.1-1,.1.1,0,0,0,.1-.1v-.2h0c.1-.3.1-.5.4-.7s-.1-.2.1-.3.1-.7.4-.9h0a.4.4,0,0,1,.1-.3h.1c0-.2,0-.3.1-.4h0a1.6,1.6,0,0,1,.6-.8v-.2l.2-.2h.1a2.9,2.9,0,0,1,1.8-1l.9-.2a1.2,1.2,0,0,1,.8-.1H96c.4,0,.8-.1,1.1.1l1,.2a.4.4,0,0,1,.4.4V95c-.2.6-.4.7-1.1.7H97a1.1,1.1,0,0,0-.8.2h-.4l-.7.2c-.1.2-.4.1-.5.2l-.8.2c-.3.3-.3.3.1.5h5a.7.7,0,0,1,.6.1h.9a.4.4,0,0,1,.5.2v.2c.2.6.1.9-.5,1H98.9c-.2,0-.2.1-.3.2s-.3.2-.5.2h-.4c-.1.2-.2.2-.4.2h-.5a1.3,1.3,0,0,1-1,.3H95l-.4.3h-.4a1.1,1.1,0,0,0-1.2.5,1,1,0,0,1-.4.5.8.8,0,0,0-.1,1c.2.3.5.1.8.1l.8-.3A1.9,1.9,0,0,1,95.3,101.6Z"/><path class="cls-5" d="M44.6,91.9h-.1l-.9.2a1.9,1.9,0,0,0-.8.3,4.4,4.4,0,0,1-1.6.6h-.1a1,1,0,0,1-.4.5h-.1a5.9,5.9,0,0,1-.6,1.4h-.1c.1.4-.2.8.1,1.1h6.3c.3,0,.6-.2.8.1l.3.4a.3.3,0,0,1,0,.4h0c0,.1,0,.3-.2.3s-.3.1-.4.1H45.6a2.4,2.4,0,0,0-.9.3l-.6.2h0a.8.8,0,0,1-.8.3l-.5.2a1.5,1.5,0,0,1-1.2.5h-.2c-.1.3-.4.1-.5.2h-.2c-.1.1-.2,0-.2.1h-.9c-.1.2-.5.3-.5.6a6.1,6.1,0,0,0-.3,1.3c0,.1.1.2,0,.3h0v.3a1.3,1.3,0,0,0-.1.6c-.1.2,0,.3-.1.4v.2c0,.1,0,.2-.1.2v.3a3.2,3.2,0,0,1-.2,1.4v.3c-.1.1,0,.2-.1.3v.2c0,.2-.1.3-.1.4v.9c0,.3-.1.6-.1.9h-.1v.6c0,.2-.1.3-.1.4a2.2,2.2,0,0,0-.1.8c-.1,0,0,.1-.1.2h-.1a.2.2,0,0,1-.2.2h-.5c-.4,0-.4-.3-.5-.5v-2.3c.2-.3-.1-.6.1-.9h0a1.5,1.5,0,0,1,.1-.7h0c.1-.1,0-.3.1-.4v-.3c.1-.1,0-.3.1-.4v-.2a5.8,5.8,0,0,1,.2-1.9v-.3c.1-.2,0-.3.1-.5a14.7,14.7,0,0,0,0-2.1c-.1-.1,0-.3-.1-.4v-.2a.9.9,0,0,1-.1-.5v-.2c-.1-.1-.2-.2-.1-.4h0a1.1,1.1,0,0,1,.5-1.3v-.2a.2.2,0,0,1,.2-.2v-.3l.2-.4h0c0-.2,0-.3.1-.4s0-.3.1-.5,0-.2.1-.2v-.2c.1-.2,0-.5.2-.7a2.5,2.5,0,0,1,.2-.7c.1,0,0-.1,0-.2s.3-.4.3-.7h0c.2,0,.1-.3.3-.3s.3-.5.5-.6l.3-.2a1,1,0,0,1,.6-.5h0c.1-.2.2-.2.4-.2h0c.2-.3.6-.3.9-.4h1.3a1.3,1.3,0,0,1,1.2-.1h.9c.3,0,.6-.1.7.2h.2c.1.1.3.1.3.3a1.3,1.3,0,0,1-.2,1.2c0,.2-.2.2-.3.3l-.7.3Z"/><path class="cls-5" d="M109.2,98.2a2.8,2.8,0,0,1,.4-1.2c-.1-.1,0-.1,0-.2a.5.5,0,0,1,.2-.4c0-.2,0-.3.2-.3s.1-.2.1-.3l.2-.3h0l.2-.2a.7.7,0,0,1,.4-.5h.1a.6.6,0,0,1,.7-.1h0c.2.1.5.1.6.3s0,.2.1.2.2.2.3.4v.2a1.2,1.2,0,0,1,.4.8h0c.1.2.2.3.2.5h.1c.1.3.5.5.6.9s0,.1,0,.1a1,1,0,0,1,.6.5.1.1,0,0,0,.1.1,1.8,1.8,0,0,1,.7.5h.2l.2.2.8.3h.6l.3-.8.3-.8c.1-.2,0-.5.2-.6s.1-.1,0-.1.1-.5.3-.6l.3-.9c.1-.2,0-.4.3-.6l.3-.6c0-.2,0-.3.1-.4l.3-.7h0a.4.4,0,0,0,.1-.3c.1-.2.1-.4.3-.6h0a.4.4,0,0,1,.2-.4l.4-1.1c.1-.1,0-.2,0-.3s.4-.9,1-.8.6.4.6.8a.6.6,0,0,1,.1.4v.2a.7.7,0,0,1-.2.6h0c0,.1,0,.2-.1.2v.2c-.1.2-.1.4-.3.4h-.1v.3h0c-.2.1,0,.2-.2.3s0,.2,0,.3,0,.3-.1.3a.8.8,0,0,0-.2.4,1.3,1.3,0,0,1-.1.6h-.1a.6.6,0,0,1-.2.7h0c-.1.3,0,.6-.2.8a.2.2,0,0,0-.1.3c-.1.2,0,.4-.2.6s-.1.1-.1.2a.7.7,0,0,1-.1.5h-.1c0,.2.1.5-.2.6s-.1.6-.1.9a3.1,3.1,0,0,1-.2.8v.9c-.1.4.1.7,0,1a1.5,1.5,0,0,1-.3.7l-.5.2h-1a1.9,1.9,0,0,1-1.1-.7V103a7.3,7.3,0,0,1-1.8-1.7v-.2l-1.1-.8h-.1l-.3-.2-.4-.2h-.9v.3c-.1.2.1.4-.1.5h0c-.1.1,0,.3-.1.4h0c.1.2,0,.4,0,.5v.2a1,1,0,0,1-.1.9h0a2.5,2.5,0,0,1-.4,1.2h0a.5.5,0,0,1-.4.6h-.1c-.1.1-.2.2-.3.1h-.3l-.2-.2c-.1,0-.2,0-.2-.2l-.3-.4h-.1l-.2-.2v-.5h0a.6.6,0,0,0,0-.6.9.9,0,0,1,.1-.5.6.6,0,0,0,.1-.4v-1.1c.1-.1-.1-.3.1-.5s-.1-.5,0-.7,0-.6.1-.9S109.1,98.3,109.2,98.2Z"/><path class="cls-5" d="M156.7,105.4l-.4.2c-.2.4-.5.4-.9.3h0c-.3,0-.4-.3-.4-.5a.9.9,0,0,1-.1-.5c.1-.2.1-.4.3-.6a1.8,1.8,0,0,1,1.5-1l1.1-.4a8.5,8.5,0,0,0,2.5-1.3l.2-.2c.1-.1.3-.2.2-.3s-.2-.2-.4-.2h-2.9a5.3,5.3,0,0,1-2.5-.1l-.2-.2h0c-.1-.1-.2,0-.2-.1h-.1c-.2,0-.3-.1-.4-.3h0c-.1,0-.1-.1-.1-.2h0c-.2-.1-.2-.2-.3-.3v-.2a1.1,1.1,0,0,1,.1-1.1h0c.1-.1,0-.2.1-.3a.5.5,0,0,0,.2-.4l.4-.3h.2c0-.2.1-.3.2-.3h.2a1.2,1.2,0,0,1,.5-.5h.1l.9-.5h.1l1.1-.5.2-.2h.2c.2-.1.4-.1.5-.3a.2.2,0,0,1,.2-.2l.5-.4h.2l.4-.2h0l.6-.5H162c.4,0,.4.3.5.5h0c.1.2-.1.5,0,.7v.3c0,.1.1.2,0,.3h-.1a.5.5,0,0,1-.4.6h-.3c-.4.2-.7.5-1.1.5s-.2,0-.3.1-.6.3-.9.5h0l-.3.2H159a1.4,1.4,0,0,1-.8.5l-.5.3c0,.1-.1.2-.2.3s-.3.2-.2.3.2.1.4.1h4.2l1.2.4.3.2a.8.8,0,0,1,.5.5v.4c0,.1-.1.2-.1.4h0a2.6,2.6,0,0,1-.7,1.1c-.1,0-.1.1-.1.2s-.3.5-.6.6h-.1a1,1,0,0,1-.8.5l-.3.2a.5.5,0,0,1-.4.2h-.1c-.2.3-.5.2-.7.3h0a1.8,1.8,0,0,1-1,.4h-.5l-1.2.5C157.2,105.2,156.9,105.3,156.7,105.4Z"/><path class="cls-5" d="M80,93.5v.2a4.1,4.1,0,0,1,0,1.9v.6h0c-.1.1,0,.2-.1.3a1.9,1.9,0,0,0-.3.8.4.4,0,0,1-.2.4c-.1.1,0,.3-.1.4s0,.4-.2.5-.2.4-.3.7h0c-.1.3-.1.6-.3.8h0a2.8,2.8,0,0,1-.1.9v.5a2.8,2.8,0,0,1-.1,2h0c0,.1,0,.2-.1.2l-.3.2a1.4,1.4,0,0,1-1.1-.1h-.4c0-.1-.2-.2-.2-.4a1,1,0,0,1,.1-.9c0-.2-.1-.5.1-.7a1.9,1.9,0,0,1,.1-.8v-.2c-.1-.2,0-.3,0-.4l.4-2c.1-.1,0-.3.1-.4h0c0-.2-.1-.5.1-.7s0-.4.1-.6a4.1,4.1,0,0,1,.3-1.6h.1c0-.1-.1-.2,0-.3h0c.1-.1.1-.2.1-.4l.2-.8c0-.3,0-.5.3-.7s.1-.3.3-.2.7-.3,1,0h.2C80.1,92.8,79.9,93.2,80,93.5Z"/><polygon class="cls-5" points="60.7 99.5 60.7 99.5 60.7 99.5 60.7 99.5 60.7 99.5"/><polygon class="cls-5" points="54.7 110.1 54.7 110.2 54.7 110.1 54.7 110.1 54.7 110.1"/><path class="cls-5" d="M66.5,101.3,66,101H64.6l-.8-.2-.5-.2c-.2.1-.3,0-.4-.1h-.4l-.6-.2-.4-.2h0l-.8-.4h0a.3.3,0,0,1,0-.4l.3-.3.4-.3c.1,0,.3-.1.3-.2s.4-.4.7-.4.4-.1.5-.3.2-.2.4-.2h.2l.4-.2.5-.5a.5.5,0,0,0,.4-.5l.3-.6v-.7a.8.8,0,0,0-.3-.9h0c-.1-.1-.1-.3-.3-.4l-.3-.4c-.1-.2-.2-.2-.4-.3h-.2c-.2-.3-.6-.2-.9-.3h-.1a2.6,2.6,0,0,0-1.5-.1h-.2c-.6-.1-.9.3-1.2.6h0c-.3.1-.5.1-.7.4H58c-.2-.1-.3-.2-.4-.1s-.4-.3-.6-.4a.3.3,0,0,0-.5,0,.7.7,0,0,0-.4.5c-.2.2-.1.4-.1.6a.4.4,0,0,0-.1.3.6.6,0,0,0-.1.4,5.3,5.3,0,0,0-.3,1.2c-.2.2-.1.4-.1.6s-.1.5-.2.7a.9.9,0,0,0-.1.5h0c-.2.2-.1.5-.2.7s.1.4-.1.5,0,.2,0,.3a2.9,2.9,0,0,0-.2.9l-.2.8c-.1.3-.1.6-.2.9a8,8,0,0,0-.3,1.5c-.1.3-.1.6-.2,1s-.1.1-.1.2v.8c-.2.2-.1.5-.2.7h0c-.1,0,0,.1-.1.2a3.2,3.2,0,0,0-.2,1.4.2.2,0,0,0,0,.3,3.2,3.2,0,0,0,.2,1.4c-.1.1,0,.1,0,.2s0,.3.1.4a.7.7,0,0,0,.7.6h.2c.3,0,.4-.2.5-.5h0a.2.2,0,0,0,0-.3v-1.2c.1-.3-.1-.6,0-1h0c.2-.3,0-.6.1-.9v-.4c.2-.1.1-.3.1-.5h0a.7.7,0,0,0,.1-.5h0c.1-.1,0-.2.1-.3s.1-.5.2-.8a17.4,17.4,0,0,1,1-1.9l.2-.3a4.5,4.5,0,0,1,2.3.1h.7c.1.2.3.1.4.2h.4a5.7,5.7,0,0,0,2.2.7c.2.3.4.2.7.2h1.4c.2.1.4-.1.7-.1a.9.9,0,0,0,.9-.3.8.8,0,0,0,.3-.8C66.6,101.8,66.7,101.5,66.5,101.3Zm-8.1-2.8h-.3c-.7.2-.8.2-.7-.7a2.5,2.5,0,0,1,1.7-2.5,7,7,0,0,1,2.4-.9c.3-.1.8-.2,1,.1s-.1.7-.3.9A15.7,15.7,0,0,1,58.4,98.5Z"/><polygon class="cls-5" points="130.2 102.3 130.2 102.3 130.2 102.3 130.2 102.3"/><path class="cls-5" d="M143.3,97.6v-.4c-.1,0,0-.1,0-.2v-.3c-.1-.3-.1-.5-.3-.7l-.2-.3c0-.3-.2-.5-.5-.7h-.1c0-.1-.2-.2-.3-.3l-.3-.2a3.1,3.1,0,0,0-1.8-.9h-.2c-.2-.2-.5-.1-.7-.2H138c-.4.1-.8-.1-1.2,0a1.1,1.1,0,0,1-.8-.1,5.1,5.1,0,0,0-1.3-.2h-1c-.3.1-.7.1-.9.3l-.2.2c-.1,0-.1.1-.1.2h0a.2.2,0,0,0,0,.3h0a1.5,1.5,0,0,0,.1.7V95c-.2.2,0,.4-.1.6v.3c0,.2-.2.4-.1.7h-.1a1.3,1.3,0,0,0-.1.6c-.1,0,0,.2-.1.3a1.1,1.1,0,0,0-.3.8h-.1c-.2.2-.2.5-.3.8a.4.4,0,0,0-.1.3.6.6,0,0,0-.1.4h-.1a.4.4,0,0,0-.2.4l-.3.7c0,.1-.1.2-.1.3l-.2.4c-.1.1,0,.3-.1.5a1.4,1.4,0,0,0,0,.9v.6a1.4,1.4,0,0,0,.2.6h0a.6.6,0,0,0,.1.4l.2.7a.5.5,0,0,0,.2.4c.4.3.8.1,1.2.2s.3-.1.4-.3a.7.7,0,0,0,.2-.6,4.9,4.9,0,0,1,.1-1.2H134l1-.3h2a3.5,3.5,0,0,0,1.1-.3l.9-.2a.9.9,0,0,0,.7-.3h.1a1.4,1.4,0,0,0,.9-.3h0c.2-.1.4,0,.5-.2h.2a2.8,2.8,0,0,0,1-.9l.4-.3h0a2,2,0,0,0,.5-.9v-.2A2.5,2.5,0,0,0,143.3,97.6Zm-1.9,1.8a4.2,4.2,0,0,1-2.4,1.2l-2.6.7c-.3.2-.5,0-.7-.2s-1.1-.9-1.8-.4h-1c-.2-.2.1-.5.2-.8a30.9,30.9,0,0,0,1.4-4.3c0-.1.1-.2.3-.2a19.5,19.5,0,0,0,3.4.3h1.1a3,3,0,0,1,2.6,2.8A1.4,1.4,0,0,1,141.4,99.4Z"/></g></svg>