<?xml version="1.0" encoding="utf-8"?>
<!-- Generator: Adobe Illustrator 24.0.1, SVG Export Plug-In . SVG Version: 6.00 Build 0)  -->
<svg version="1.1" id="Layer_1" xmlns="http://www.w3.org/2000/svg" xmlns:xlink="http://www.w3.org/1999/xlink" x="0px" y="0px"
	 viewBox="0 0 200 200" style="enable-background:new 0 0 200 200;" xml:space="preserve">
<style type="text/css">
	.st0{fill:#ED1D23;}
	.st1{fill:#FFFFFF;}
	.st2{fill:none;}
</style>
<title>Marvel</title>
<circle class="st0" cx="100" cy="100" r="95"/>
<g>
	<path class="st1" d="M63.1,118.5c0-6,0-11.9,0-17.8c0,0,0,0-0.1,0c-0.2,1.3-0.4,2.5-0.6,3.8c-0.5,3-1,6-1.5,9
		c-0.3,1.6-0.5,3.1-0.8,4.7c0,0.2-0.1,0.3-0.3,0.3c-1.1,0-2.2,0-3.3,0c0,0-0.1,0-0.1,0c-1-5.9-2-11.8-3-17.7c0,0,0,0,0,0
		c0,5.9,0,11.8,0,17.8c-2.3,0-4.6,0-6.9,0c0-0.1,0-0.2,0-0.4c0-12.4,0-24.7,0-37.1c0-0.3,0.1-0.4,0.4-0.4c2.6,0,5.3,0,7.9,0
		c0.3,0,0.4,0.1,0.4,0.4c0.7,4.5,1.4,9,2.1,13.5c0.3,1.8,0.6,3.6,0.9,5.4c0.1-0.3,0.1-0.6,0.2-0.9c0.8-4.9,1.6-9.8,2.3-14.7
		c0.2-1.1,0.4-2.2,0.5-3.3c0-0.2,0.1-0.3,0.4-0.3c2.7,0,5.4,0,8.1,0c0.4,0,0.3,0.2,0.3,0.5c0,6.8,0,13.7,0,20.5c0,4.3,0,8.5,0,12.8
		c0,0.1,0,0.3,0,0.4c0,0,0,0,0.1,0c0.2-1.1,0.3-2.2,0.5-3.4c0.4-2.4,0.7-4.8,1.1-7.3c0.4-2.4,0.7-4.8,1.1-7.2
		c0.4-2.4,0.7-4.8,1.1-7.2c0.4-2.4,0.7-4.9,1.1-7.3c0.1-0.5,0.2-1,0.2-1.5c0-0.2,0.1-0.3,0.4-0.3c2.8,0,5.6,0,8.4,0
		c0.3,0,0.4,0.1,0.4,0.3c0.3,2.1,0.6,4.2,0.9,6.3c0.4,2.4,0.7,4.8,1.1,7.2c0.4,2.4,0.7,4.8,1.1,7.2c0.4,2.4,0.7,4.8,1.1,7.2
		c0.2,1.5,0.4,2.9,0.7,4.4c0,0.1,0.1,0.3,0.1,0.4c0-11,0-22,0-33.1c0.2,0,0.3,0,0.5,0c2.1,0,4.1,0,6.2,0c4.4,0,7.6,1.9,9.9,5.6
		c0,0.1,0.1,0.1,0.2,0.2c-0.2-1.9-0.5-3.8-0.7-5.8c0.1,0,0.3,0,0.4,0c2.1,0,4.2,0,6.2,0c0.3,0,0.4,0.1,0.4,0.4
		c0.5,3.5,0.9,7,1.4,10.6c0.5,3.5,1,7.1,1.4,10.6c0.1,0.4,0.1,0.8,0.2,1.3c0.1-0.8,0.2-1.7,0.3-2.5c0.3-2.1,0.6-4.3,0.9-6.4
		c0.3-2.1,0.6-4.2,0.9-6.4c0.3-2.1,0.6-4.2,0.9-6.4c0-0.3,0.1-0.5,0.1-0.8c0-0.3,0.1-0.4,0.4-0.4c0.1,0,0.1,0,0.2,0
		c6.1,0,12.1,0,18.2,0c0.2,0,0.3,0,0.5,0c0,2.3,0,4.6,0,6.9c-2,0-4,0-6.1,0c0,2.9,0,5.7,0,8.5c2,0,4,0,6.1,0c0,2.3,0,4.6,0,6.9
		c-2,0-4,0-6.1,0c0,0.2,0,0.3,0,0.4c0,2.6,0,5.3,0,7.9c0,0.3,0.1,0.4,0.4,0.4c1.7,0,3.5,0,5.2,0c0.1,0,0.3,0,0.4,0
		c0,2.3,0,4.5,0,6.8c-4.3,0-8.6,0-12.9,0c0-11.2,0-22.4,0-33.6c0,0,0,0-0.1,0c-1.8,11.2-3.6,22.4-5.3,33.6c-2.7,0-5.3,0-8,0
		c-1.3-7.7-2.6-15.4-3.9-23.1c-0.1,2.7-1.1,5.1-2.8,7.2c-0.3,0.4-0.7,0.7-1.1,1.1c-0.2,0.2-0.2,0.3-0.2,0.5
		c1.3,4.4,2.6,8.7,3.9,13.1c0.1,0.4,0.2,0.8,0.4,1.3c-0.2,0-0.3,0-0.4,0c-2,0-3.9,0-5.9,0c-0.3,0-0.5-0.1-0.5-0.4
		c-1-3.9-2.1-7.9-3.1-11.8c0-0.1-0.1-0.2-0.1-0.3c-0.5,0.1-0.9,0.1-1.4,0.2c-0.1,0-0.1,0.1-0.2,0.2c0,0.1,0,0.2,0,0.3
		c0,3.8,0,7.5,0,11.3c0,0.2,0,0.3,0,0.5c-4.3,0-8.6,0-13,0c-0.1-0.6-0.2-1.3-0.3-1.9c-0.2-1.2-0.3-2.4-0.5-3.7
		c0-0.1-0.1-0.2-0.2-0.2c-1.7,0-3.4,0-5.1,0c-0.1,0.7-0.2,1.3-0.3,2c-0.2,1.2-0.3,2.4-0.5,3.6c0,0.1-0.2,0.2-0.3,0.2
		c-0.2,0-0.3,0-0.5,0c-4,0-8,0-11.9,0C63.4,118.5,63.3,118.5,63.1,118.5z M96.2,99.6c0.3,0,0.5-0.1,0.7-0.1c1.7-0.4,2.7-1.6,3.3-3.1
		c0.6-1.5,0.6-3,0.4-4.5c-0.2-1.1-0.5-2.1-1.3-3c-0.8-0.9-1.9-1.3-3.1-1.4C96.2,91.5,96.2,95.5,96.2,99.6z M79.8,91
		C79.8,91,79.7,91,79.8,91c-0.7,5.2-1.3,10.4-1.9,15.7c1.3,0,2.5,0,3.8,0C81.1,101.4,80.4,96.2,79.8,91z"/>
	<path class="st1" d="M145.8,111.7c2,0,3.9,0,5.8,0c0,2.3,0,4.5,0,6.8c-4.2,0-8.4,0-12.6,0c0-12.6,0-25.2,0-37.8c0.1,0,0.3,0,0.4,0
		c2,0,4,0,6,0c0.3,0,0.4,0.1,0.4,0.4c0,10,0,20,0,30.1C145.8,111.3,145.8,111.5,145.8,111.7z"/>
</g>
<rect class="st2" width="200" height="200"/>
</svg>
