<?xml version="1.0" encoding="utf-8"?>
<!-- Generator: Adobe Illustrator 24.0.1, SVG Export Plug-In . SVG Version: 6.00 Build 0)  -->
<svg version="1.1" id="Layer_1" xmlns="http://www.w3.org/2000/svg" xmlns:xlink="http://www.w3.org/1999/xlink" x="0px" y="0px"
	 viewBox="0 0 200 200" style="enable-background:new 0 0 200 200;" xml:space="preserve">
<style type="text/css">
	.st0{fill:none;}
	.st1{enable-background:new    ;}
	.st2{fill:#FFE81F;}
</style>
<title>Star wars</title>
<circle cx="100" cy="100" r="90"/>
<rect class="st0" width="200" height="200"/>
<g class="st1">
	<path class="st2" d="M105.4,100.8c0.1,0,0.2,0,0.4,0c4.8,0,9.6,0,14.4,0c3.3,0,5.7,1.6,7.3,4.3c0.6,1,1,2.2,0.9,3.4
		c-0.1,1.9-0.8,3.5-2.2,4.7c-0.5,0.4-1,0.8-1.4,1.1c-0.1,0.1-0.1,0.1-0.2,0.2c0.2,0.3,0.4,0.3,0.7,0.3c1.3,0,2.7,0.1,4,0.1
		c2.7,0,5.4,0,8,0c0.3,0,0.6,0,0.9-0.1c-0.1-0.1-0.2-0.2-0.2-0.3c-0.6-0.7-1.3-1.5-1.9-2.2c-0.8-0.9-1.6-1.8-2.1-3
		c-1.3-3.3,0.3-7.5,4.5-8.5c0.7-0.2,1.4-0.2,2.1-0.2c4.6,0,9.2,0,13.8,0c0.1,0,0.2,0,0.3,0c0,2.7,0,5.3,0,8c-3.6,0-7.1,0-10.7,0
		c0.2,0.3,0.4,0.6,0.6,0.8c1,1.3,2.1,2.6,3.1,3.9c0.9,1.1,1.3,2.4,1.2,3.8c-0.1,1.9-1,3.4-2.4,4.7c-1.1,1-2.4,1.5-3.8,1.5
		c-4.5,0.2-9,0.1-13.4,0.1c-2,0-3.9-0.1-5.9,0c-1.6,0-3-0.5-4.1-1.5c-1.5-1.4-3-2.8-4.5-4.1c-0.1-0.1-0.2-0.1-0.3-0.2
		c0,2,0,3.9,0,5.9c-3,0-6,0-8.9,0C105.4,115.9,105.4,108.4,105.4,100.8z M153.3,101.9c-0.1,0-0.2,0-0.3,0c-4.1,0-8.2,0-12.3,0
		c-0.5,0-1.1,0-1.6,0.1c-2.8,0.5-4.6,2.9-4.2,5.8c0.1,1,0.7,1.9,1.3,2.7c0.8,0.9,1.6,1.8,2.4,2.7c0.3,0.4,0.6,0.8,0.9,1.2
		c0.4,0.6,0,1.5-0.8,1.7c-0.5,0.1-1,0.2-1.5,0.2c-4,0-8,0-12-0.1c-0.4,0-0.7,0-1-0.2c-0.7-0.4-1.2-1-1.7-1.6
		c-0.1-0.2-0.1-0.3,0.1-0.4c0.2-0.1,0.5-0.3,0.7-0.4c1.9-1,3.3-2.4,3.7-4.6c0.1-0.5,0.1-1,0-1.5c-0.6-3.1-3.5-5.5-6.7-5.5
		c-4.4,0-8.8,0-13.1,0c-0.4,0-0.4,0-0.4,0.4c0,6.4,0,12.8,0,19.1c0,0.1,0,0.2,0,0.3c0.1,0,0.2,0,0.2,0c1.9,0,3.8,0,5.6,0
		c0.3,0,0.4-0.1,0.4-0.4c0-2.3,0-4.6,0-6.9c0-0.1,0-0.2,0-0.4c0.2,0.2,0.4,0.3,0.5,0.5c1.8,1.7,3.6,3.4,5.4,5
		c0.6,0.6,1.4,1.1,2.1,1.6c0.5,0.4,1,0.5,1.6,0.5c0.8,0,1.6,0.1,2.4,0.1c3.9,0,7.7,0.1,11.6,0c2.1,0,4.2-0.1,6.3-0.2
		c0.6,0,1.3-0.1,1.9-0.5c1.1-0.7,2-1.7,2.5-2.9c0.6-1.5,0.5-3-0.5-4.3c-0.5-0.7-1.1-1.4-1.6-2c-0.8-1-1.5-2-2.3-2.9
		c-0.4-0.5-0.3-1-0.1-1.5c0.2-0.5,0.4-0.6,0.9-0.6c3.1,0,6.3,0,9.4,0c0.1,0,0.3,0,0.4,0C153.3,105.4,153.3,103.7,153.3,101.9z"/>
	<path class="st2" d="M68.8,84.3c0.2,0.3,0.3,0.5,0.4,0.6c0.9,1.2,1.8,2.3,2.7,3.5c0.3,0.4,0.6,0.9,1,1.3c0.9,1.1,1.1,2.4,0.9,3.8
		c-0.3,1.8-1.1,3.3-2.5,4.4c-1,0.8-2.1,1.2-3.3,1.3c-2,0.1-4,0.1-6,0.1c-5.4,0-10.9,0-16.3,0c-0.1,0-0.3,0-0.4,0c0-2.8,0-5.5,0-8.3
		c0.1,0,0.3,0,0.4,0c5.7,0,11.4,0,17.2,0c0.2,0,0.3,0,0.6-0.1c-0.3-0.4-0.6-0.7-0.9-1.1c-0.9-1-1.7-2-2.6-3.1
		c-1.4-1.7-1.6-3.6-0.9-5.6c0.8-2.2,2.2-3.8,4.5-4.5c0.6-0.2,1.2-0.2,1.8-0.2c4.1,0,8.3,0,12.4,0c6.6,0,13.2,0,19.8,0
		c0.1,0,0.3,0,0.4,0c0,2.5,0,5.1,0,7.7c-0.1,0-0.2,0-0.4,0c-3,0-6.1,0-9.1,0c-0.4,0-0.4,0-0.4,0.4c0,4.8,0,9.5,0,14.3
		c0,0.1,0,0.3,0,0.4c-0.1,0-0.3,0-0.4,0c-2.6,0-5.2,0-7.9,0c-0.4,0-0.4,0-0.4-0.4c0-4.8,0-9.5,0-14.3c0-0.5,0-0.5-0.4-0.5
		c-3.2,0-6.4,0-9.6,0C69.1,84.3,69,84.3,68.8,84.3z M46.6,92.4c0,1.9,0,3.7,0,5.6c0.2,0,0.3,0,0.4,0c4,0,8,0,11.9,0
		c2.8,0,5.7-0.1,8.5-0.1c0.8,0,1.6-0.1,2.3-0.6c1.3-0.7,2.1-1.9,2.5-3.3c0.4-1.3,0.3-2.6-0.6-3.7c-0.7-0.9-1.4-1.9-2.2-2.8
		c-0.6-0.8-1.2-1.5-1.7-2.3c-0.7-1.1,0-2.3,1.3-2.3c3.7,0,7.5,0,11.2,0c0.1,0,0.2,0,0.3,0c0,0.2,0,0.3,0,0.4c0,4.8,0,9.6,0,14.3
		c0,0.3,0.1,0.4,0.4,0.4c1.7,0,3.5,0,5.2,0c0.4,0,0.4,0,0.4-0.4c0-4.8,0-9.5,0-14.3c0-0.1,0-0.2,0-0.4c3.3,0,6.6,0,9.9,0
		c0-1.7,0-3.3,0-5c-0.1,0-0.3,0-0.4,0c-1.6,0-3.2,0-4.8,0c-8.7,0-17.4,0-26.1,0c-0.6,0-1.3,0.1-1.9,0.3c-1.8,0.8-2.8,2.2-3.2,4
		c-0.3,1.4-0.1,2.7,0.9,3.8c0.3,0.4,0.6,0.7,0.9,1.1c0.8,1,1.7,2,2.5,2.9c0.4,0.5,0.4,1,0.1,1.5c-0.3,0.5-0.7,0.9-1.3,0.9
		c-5.4,0-10.8,0-16.1,0C46.8,92.4,46.7,92.4,46.6,92.4z"/>
	<path class="st2" d="M79.5,100.7c-0.3,0.9-0.6,1.8-0.9,2.7c-2.3,6.6-4.5,13.1-6.8,19.7c-0.1,0.2-0.2,0.3-0.4,0.3
		c-1.8,0-3.5,0-5.3,0c-0.2,0-0.3-0.1-0.4-0.3c-1-2.9-2-5.9-3-8.8c0-0.1-0.1-0.2-0.1-0.3c-0.1,0.2-0.1,0.3-0.1,0.3
		c-1.1,2.9-2.1,5.8-3.2,8.7c-0.1,0.2-0.2,0.3-0.4,0.3c-1.8,0-3.5,0-5.3,0c-0.2,0-0.3,0-0.3-0.2c-2.5-7.4-5-14.8-7.6-22.2
		c0,0,0-0.1,0-0.2c0.1,0,0.2,0,0.3,0c2.6,0,5.2,0,7.9,0c0.3,0,0.4,0.1,0.4,0.3c0.6,1.8,1.3,3.6,1.9,5.4c0,0.1,0.1,0.2,0.1,0.3
		c0.1-0.2,0.1-0.3,0.1-0.4c0.6-1.8,1.3-3.6,1.9-5.4c0.1-0.2,0.2-0.3,0.4-0.3c2.6,0,5.1,0,7.7,0c0.2,0,0.3,0.1,0.4,0.3
		c0.6,1.8,1.2,3.7,1.9,5.5c0,0.1,0.1,0.2,0.1,0.3c0.1-0.1,0.1-0.2,0.1-0.3c0.6-1.8,1.3-3.6,1.9-5.4c0.1-0.2,0.2-0.3,0.4-0.3
		c2.6,0,5.3,0,7.9,0C79.2,100.7,79.3,100.7,79.5,100.7z M47.5,102c0,0.1,0.1,0.2,0.1,0.3c2.2,6.5,4.4,12.9,6.6,19.4
		c0.1,0.2,0.2,0.3,0.4,0.3c1.1,0,2.2,0,3.2,0c0.3,0,0.4-0.1,0.6-0.4c1.4-3.8,2.7-7.5,4.1-11.3c0-0.1,0.1-0.2,0.1-0.3
		c0,0.1,0.1,0.2,0.1,0.3c1.3,3.9,2.7,7.7,4,11.6c0.1,0.2,0.2,0.3,0.4,0.3c1.1,0,2.2,0,3.3,0c0.3,0,0.4-0.1,0.4-0.3
		c2.2-6.5,4.4-12.9,6.6-19.4c0-0.1,0.1-0.2,0.1-0.4c-0.1,0-0.2,0-0.3,0c-1.7,0-3.4,0-5.1,0c-0.3,0-0.3,0.1-0.4,0.3
		c-0.9,2.6-1.8,5.2-2.7,7.8c-0.1,0.1-0.1,0.3-0.2,0.5c-0.1-0.4-0.3-0.6-0.4-0.9c-0.9-2.5-1.8-5-2.6-7.5c-0.1-0.2-0.2-0.3-0.4-0.3
		c-1.9,0-3.8,0-5.8,0c-0.3,0-0.4,0.1-0.4,0.3c-0.9,2.7-1.9,5.4-2.8,8.1c0,0.1-0.1,0.2-0.1,0.3c-0.1-0.2-0.1-0.3-0.2-0.5
		c-0.9-2.6-1.9-5.3-2.8-7.9c-0.1-0.3-0.2-0.4-0.5-0.4c-1.6,0-3.3,0-4.9,0C47.7,102,47.6,102,47.5,102z"/>
	<path class="st2" d="M123.5,99.3c0-7.5,0-15.1,0-22.6c0.1,0,0.2,0,0.3,0c4.3,0,8.6,0,12.9,0c1.2,0,2.4,0,3.6,0.2
		c1.8,0.2,3.2,1.1,4.4,2.4c2.7,2.9,2.4,8.3-1.6,10.9c-0.2,0.1-0.4,0.2-0.6,0.4c0.2,0.3,0.5,0.4,0.8,0.4c3.5,0,7,0.1,10.6,0.1
		c0.2,0,0.4,0,0.7,0c0.1,2.8,0.1,5.5,0.2,8.2c-0.1,0-0.2,0-0.3,0c-4.1,0-8.2,0-12.3,0c-0.9,0-1.7,0-2.6-0.2c-0.5-0.1-1-0.3-1.3-0.6
		c-1.2-0.9-2.3-1.9-3.4-2.9c-0.7-0.6-1.3-1.2-2-1.8c-0.1-0.1-0.2-0.1-0.3-0.3c0,0.2,0,0.3,0,0.4c0,1.6,0,3.3,0,4.9
		c0,0.3-0.1,0.4-0.4,0.4c-2.8,0-5.6,0-8.4,0C123.7,99.4,123.6,99.3,123.5,99.3z M131.2,90.4c0.1,0.1,0.2,0.2,0.3,0.3
		c1.4,1.3,2.7,2.6,4.1,3.9c1,0.9,2.1,1.8,3.1,2.7c0.4,0.4,0.9,0.6,1.5,0.6c0.5,0,1,0.1,1.5,0.1c3.8,0,7.5,0,11.3,0
		c0.1,0,0.2,0,0.4,0c0-1.8-0.1-3.7-0.1-5.5c-0.8,0-1.5,0-2.2,0c-2.8,0-5.5-0.1-8.3-0.1c-0.1,0-0.3,0-0.3-0.1
		c-0.7-0.5-1.4-1.1-1.9-1.8c-0.1-0.2-0.1-0.3,0.1-0.4c0.4-0.2,0.9-0.5,1.3-0.8c1.7-1,2.9-2.5,3.1-4.6c0.1-1.4-0.1-2.8-1-4
		c-1-1.3-2.2-2.3-3.9-2.6c-0.9-0.1-1.8-0.1-2.8-0.2c-4.1,0-8.2,0-12.4,0c-0.1,0-0.2,0-0.3,0c0,6.6,0,13.3,0,19.9c0.1,0,0.2,0,0.3,0
		c1.9,0,3.8,0,5.7,0c0.3,0,0.4-0.1,0.4-0.4c0-2.3,0-4.5,0-6.8C131.2,90.7,131.2,90.6,131.2,90.4z"/>
	<path class="st2" d="M103,123.3c-1,0-2,0-3,0c-1.8,0-3.5,0-5.3,0c-0.2,0-0.3-0.1-0.4-0.3c-0.2-0.8-0.5-1.7-0.8-2.5
		c-0.1-0.2-0.2-0.3-0.4-0.3c-2.3,0-4.6,0-6.9,0c-0.2,0-0.4,0-0.7,0c-0.2,0-0.3,0.1-0.3,0.3c-0.2,0.8-0.5,1.7-0.7,2.5
		c0,0.2-0.1,0.3-0.3,0.2c-2.7,0-5.4-0.1-8.2-0.1c0,0-0.1,0-0.1,0c0.2-0.7,0.5-1.4,0.7-2.1c2.3-6.7,4.6-13.4,7-20.1
		c0.1-0.2,0.2-0.3,0.5-0.3c3.6,0,7.1,0,10.7,0c0.3,0,0.4,0.1,0.5,0.3c2.5,7.3,5.1,14.7,7.7,22C102.9,123,102.9,123.1,103,123.3z
		 M101.1,121.9c0-0.2-0.1-0.3-0.1-0.4c-2.2-6.5-4.5-12.9-6.7-19.4c-0.1-0.3-0.2-0.3-0.5-0.3c-2.9,0-5.8,0-8.7,0
		c-0.3,0-0.4,0.1-0.5,0.4c-2.1,6.2-4.3,12.5-6.5,18.7c-0.1,0.3-0.2,0.5-0.3,0.8c0.1,0,0.2,0,0.2,0c1.7,0,3.4,0,5.2,0.1
		c0.2,0,0.3-0.1,0.3-0.3c0.2-0.8,0.5-1.6,0.7-2.4c0.1-0.3,0.2-0.4,0.5-0.4c3.1,0,6.3,0.1,9.4,0.1c0.2,0,0.3,0.1,0.4,0.3
		c0.2,0.8,0.5,1.6,0.8,2.4c0.1,0.2,0.2,0.3,0.4,0.3c1.7,0,3.4,0,5.1,0C100.8,121.9,100.9,121.9,101.1,121.9z"/>
	<path class="st2" d="M121.4,99.5c-0.9,0-1.8,0-2.7,0c-1.8,0-3.7,0-5.5,0c-0.3,0-0.3-0.1-0.4-0.3c-0.2-0.8-0.5-1.6-0.7-2.5
		c-0.1-0.2-0.1-0.2-0.3-0.2c-2.5,0-5,0-7.6,0c-0.2,0-0.3,0.1-0.4,0.3c-0.2,0.8-0.5,1.6-0.7,2.4c0,0.1-0.1,0.2-0.3,0.2
		c-2.8,0-5.5,0-8.3,0c0,0-0.1,0-0.2,0c0-0.1,0.1-0.2,0.1-0.3c2.5-7.3,5.1-14.7,7.6-22c0.1-0.2,0.2-0.3,0.4-0.3c3.6,0,7.3,0,10.9,0
		c0.2,0,0.3,0.1,0.4,0.3c2.6,7.4,5.1,14.8,7.7,22.3C121.3,99.3,121.4,99.4,121.4,99.5z M119.5,98.2c0-0.2-0.1-0.2-0.1-0.3
		c-2.2-6.5-4.5-13-6.7-19.5c-0.1-0.2-0.2-0.3-0.4-0.3c-3,0-6,0-8.9,0c-0.2,0-0.3,0.1-0.4,0.3c-2.2,6.4-4.4,12.9-6.7,19.3
		c0,0.1-0.1,0.2-0.1,0.3c0.1,0,0.2,0,0.2,0c1.8,0,3.5,0,5.3,0c0.2,0,0.3-0.1,0.3-0.2c0.2-0.8,0.5-1.5,0.7-2.3
		c0.1-0.3,0.2-0.4,0.5-0.4c1.2,0,2.3,0,3.5,0c2,0,3.9,0,5.9,0c0.2,0,0.3,0.1,0.4,0.3c0.2,0.8,0.5,1.6,0.7,2.5
		c0.1,0.2,0.2,0.3,0.4,0.3c1.2,0,2.5,0,3.7,0C118.3,98.2,118.9,98.2,119.5,98.2z"/>
	<path class="st2" d="M113,106.2c0.4,0,0.7,0,1.1,0c1.5,0,2.9,0,4.4,0c0.4,0,0.7,0,1.1,0.1c1,0.2,1.5,0.9,1.8,1.8
		c0.3,1-0.1,1.8-0.8,2.4c-0.5,0.4-1,0.6-1.6,0.6c-1.8,0-3.5,0-5.3-0.1c-0.6,0-0.6,0-0.6-0.6c0-1.3,0-2.6,0-3.8
		C113,106.4,113,106.3,113,106.2z M114.3,109.7c0.1,0,0.1,0,0.2,0c1.3,0,2.6,0,3.9,0c0.2,0,0.5,0,0.7-0.1c0.6-0.1,0.9-0.6,0.9-1.1
		c0-0.5-0.5-0.9-1-1c-1.5,0-3-0.1-4.4-0.1c-0.1,0-0.2,0.1-0.2,0.1C114.3,108.3,114.3,109,114.3,109.7z"/>
	<path class="st2" d="M131.2,82.2c0.1,0,0.2,0,0.3,0c1.6,0,3.2,0,4.9,0c0.6,0,1.2,0.1,1.8,0.3c1,0.5,1.4,1.2,1.3,2.5
		c0,0.9-0.6,1.4-1.3,1.9c-0.2,0.1-0.4,0.2-0.7,0.2c-2.1,0-4.2,0-6.2,0.1c0,0-0.1,0-0.1,0C131.2,85.4,131.2,83.8,131.2,82.2z
		 M132.5,85.6c1.7,0,3.3,0,5,0c0.1,0,0.1-0.1,0.2-0.1c0.5-0.3,0.5-0.8,0.4-1.3c-0.1-0.5-0.5-0.6-0.9-0.7c-0.4-0.1-0.8-0.1-1.2-0.1
		c-1.1,0-2.1,0-3.2,0c-0.1,0-0.3,0.1-0.3,0.2C132.5,84.3,132.5,85,132.5,85.6z"/>
	<path class="st2" d="M92.8,114.5c-2.3,0-4.5,0-6.8,0c1.2-3.2,2.3-6.4,3.5-9.6C90.6,108.1,91.7,111.3,92.8,114.5z M89.5,109
		C89.5,109,89.5,109,89.5,109c-0.6,1.3-1.1,2.7-1.6,4.1c1,0,2,0,2.9,0C90.4,111.7,90,110.4,89.5,109z"/>
	<path class="st2" d="M108,81.1c1.1,3.2,2.2,6.4,3.3,9.7c-2.3,0-4.5,0-6.9,0C105.6,87.5,106.8,84.3,108,81.1
		C107.9,81.1,108,81.1,108,81.1z M109.4,89.4c-0.5-1.5-1-2.9-1.5-4.3c0,0-0.1,0-0.1,0c-0.5,1.4-1,2.9-1.5,4.3
		C107.4,89.4,108.4,89.4,109.4,89.4z"/>
</g>
</svg>
